<svg width="60" height="61" viewBox="0 0 60 61" fill="none" xmlns="http://www.w3.org/2000/svg">
<rect width="60" height="60" transform="translate(0 0.177734)" fill="#4F46E5"/>
<path d="M14 24.667V46.0002L30 35.3334L14 24.667Z" fill="white"/>
<path d="M27.3334 19.3332C27.3334 22.2772 24.9466 24.6664 22.0002 24.6664C19.0538 24.6664 16.667 22.2772 16.667 19.3332C16.667 16.3892 19.0538 14 22.0002 14C24.9466 14 27.3334 16.3892 27.3334 19.3332Z" fill="white"/>
<path d="M46 24.667V46.0002L30 35.3334L46 24.667Z" fill="white"/>
<path d="M32.667 19.3332C32.667 22.2772 35.0538 24.6664 38.0002 24.6664C40.9466 24.6664 43.3334 22.2772 43.3334 19.3332C43.3334 16.3892 40.9466 14 38.0002 14C35.0538 14 32.667 16.3892 32.667 19.3332Z" fill="white"/>
</svg>
