<svg width="60" height="61" viewBox="0 0 60 61" fill="none" xmlns="http://www.w3.org/2000/svg">
<rect width="60" height="60" transform="translate(0 0.177734)" fill="#4F46E5"/>
<g clip-path="url(#clip0_66_7491)">
<path d="M45.0078 19.721L30.6479 11.178C30.2488 10.9407 29.7517 10.9407 29.3527 11.178L14.9926 19.721C14.6088 19.9493 14.3735 20.363 14.3735 20.8096V25.6863C14.3735 35.9577 20.3081 45.3391 29.5429 48.9145C29.8369 49.0284 30.1633 49.0285 30.4576 48.9145C39.67 45.348 45.6268 35.987 45.6268 25.6863V20.8096C45.6269 20.363 45.3917 19.9493 45.0078 19.721ZM36.2581 27.1537L28.3193 35.0926C27.8246 35.5872 27.0226 35.5872 26.528 35.0926L23.7418 32.3065C23.2471 31.8119 23.2471 31.0098 23.7418 30.5151C24.2365 30.0205 25.0385 30.0205 25.5331 30.5151L27.4236 32.4055L34.4668 25.3623C34.9614 24.8677 35.7635 24.8677 36.2581 25.3623C36.7529 25.8571 36.7529 26.6591 36.2581 27.1537Z" fill="white"/>
</g>
<defs>
<clipPath id="clip0_66_7491">
<rect width="38" height="38" fill="white" transform="translate(11 11)"/>
</clipPath>
</defs>
</svg>
