<svg width="60" height="61" viewBox="0 0 60 61" fill="none" xmlns="http://www.w3.org/2000/svg">
<rect width="60" height="60" transform="translate(0 0.177734)" fill="#4F46E5"/>
<path d="M35.3332 21.9998C35.3332 22.733 34.7332 23.333 34 23.333H15.3332C14.6004 23.333 14 22.733 14 21.9998V16.6666C14 15.9334 14.6004 15.333 15.3332 15.333H34C34.7332 15.333 35.3332 15.9334 35.3332 16.6666V21.9998Z" fill="white"/>
<path d="M42 23.333C44.2091 23.333 46 21.5421 46 19.333C46 17.1239 44.2091 15.333 42 15.333C39.7909 15.333 38 17.1239 38 19.333C38 21.5421 39.7909 23.333 42 23.333Z" fill="white"/>
<path d="M24.667 27.3332C24.667 26.6004 25.267 26 26.0002 26H44.667C45.3998 26 46.0002 26.6004 46.0002 27.3332V32.6668C46.0002 33.3996 45.3998 34 44.667 34H26.0002C25.267 34 24.667 33.3996 24.667 32.6668V27.3332Z" fill="white"/>
<path d="M18 34C20.2091 34 22 32.2091 22 30C22 27.7909 20.2091 26 18 26C15.7909 26 14 27.7909 14 30C14 32.2091 15.7909 34 18 34Z" fill="white"/>
<path d="M35.3332 43.3334C35.3332 44.0666 34.7332 44.667 34 44.667H15.3332C14.6004 44.667 14 44.0666 14 43.3334V38.0002C14 37.267 14.6004 36.667 15.3332 36.667H34C34.7332 36.667 35.3332 37.267 35.3332 38.0002V43.3334Z" fill="white"/>
<path d="M42 44.667C44.2091 44.667 46 42.8761 46 40.667C46 38.4579 44.2091 36.667 42 36.667C39.7909 36.667 38 38.4579 38 40.667C38 42.8761 39.7909 44.667 42 44.667Z" fill="white"/>
</svg>
