<svg width="60" height="61" viewBox="0 0 60 61" fill="none" xmlns="http://www.w3.org/2000/svg">
<rect width="60" height="60" transform="translate(0 0.177734)" fill="#4F46E5"/>
<g clip-path="url(#clip0_66_7513)">
<path d="M40.5289 28.9085L42.1316 29.8698C42.2305 29.929 42.3123 30.0128 42.3691 30.113C42.426 30.2133 42.4558 30.3266 42.4558 30.4418C42.4558 30.557 42.426 30.6703 42.3691 30.7705C42.3123 30.8708 42.2305 30.9546 42.1316 31.0138L29.7516 38.4418L17.3716 31.0138C17.2727 30.9546 17.1909 30.8708 17.1341 30.7705C17.0772 30.6703 17.0474 30.557 17.0474 30.4418C17.0474 30.3266 17.0772 30.2133 17.1341 30.113C17.1909 30.0128 17.2727 29.929 17.3716 29.8698L18.9743 28.9085L29.7516 35.3751L40.5289 28.9085ZM40.5289 35.1751L42.1316 36.1365C42.2305 36.1957 42.3123 36.2795 42.3691 36.3797C42.426 36.48 42.4558 36.5932 42.4558 36.7085C42.4558 36.8237 42.426 36.937 42.3691 37.0372C42.3123 37.1375 42.2305 37.2213 42.1316 37.2805L30.4383 44.2965C30.2309 44.4211 29.9935 44.4869 29.7516 44.4869C29.5097 44.4869 29.2723 44.4211 29.0649 44.2965L17.3716 37.2805C17.2727 37.2213 17.1909 37.1375 17.1341 37.0372C17.0772 36.937 17.0474 36.8237 17.0474 36.7085C17.0474 36.5932 17.0772 36.48 17.1341 36.3797C17.1909 36.2795 17.2727 36.1957 17.3716 36.1365L18.9743 35.1751L29.7516 41.6418L40.5289 35.1751ZM30.4369 16.6538L42.1316 23.6698C42.2305 23.729 42.3123 23.8128 42.3691 23.913C42.426 24.0133 42.4558 24.1266 42.4558 24.2418C42.4558 24.357 42.426 24.4703 42.3691 24.5705C42.3123 24.6708 42.2305 24.7546 42.1316 24.8138L29.7516 32.2418L17.3716 24.8138C17.2727 24.7546 17.1909 24.6708 17.1341 24.5705C17.0772 24.4703 17.0474 24.357 17.0474 24.2418C17.0474 24.1266 17.0772 24.0133 17.1341 23.913C17.1909 23.8128 17.2727 23.729 17.3716 23.6698L29.0649 16.6538C29.2723 16.5292 29.5097 16.4634 29.7516 16.4634C29.9935 16.4634 30.2309 16.5292 30.4383 16.6538H30.4369Z" fill="white"/>
</g>
<defs>
<clipPath id="clip0_66_7513">
<rect width="32" height="32" fill="white" transform="translate(14 14.1777)"/>
</clipPath>
</defs>
</svg>
