<svg width="156" height="56" viewBox="0 0 156 56" fill="none" xmlns="http://www.w3.org/2000/svg">
<path d="M82.0129 27.2946C81.1675 28.1166 80.7447 29.3143 80.7447 30.8878V40.7165H75.1082V21.4114H79.5822V27.7821C79.7965 25.9637 80.3367 24.4977 81.2027 23.3842C82.377 21.9046 84.0679 21.1648 86.2756 21.1648H87.0154V26.0263H85.6062C84.0562 26.0263 82.8584 26.4491 82.0129 27.2946Z" fill="white"/>
<path fill-rule="evenodd" clip-rule="evenodd" d="M99.0984 38.3562C99.3405 37.9457 99.5401 37.4928 99.6973 36.9974V40.7165H104.171V28.8798C104.171 27.0949 103.819 25.6388 103.114 24.5115C102.41 23.3607 101.376 22.5035 100.014 21.9399C98.6756 21.3762 97.0199 21.0944 95.0471 21.0944C94.3661 21.0944 93.638 21.1061 92.863 21.1296C92.088 21.1531 91.3364 21.1883 90.6084 21.2353C89.8803 21.2823 89.2462 21.3292 88.706 21.3762V26.132C89.4341 26.0851 90.2443 26.0381 91.1368 25.9911C92.0292 25.9441 92.8982 25.9089 93.7437 25.8854C94.5892 25.8619 95.2702 25.8502 95.7869 25.8502C96.8203 25.8502 97.5718 26.0968 98.0415 26.59C98.5112 27.0832 98.7461 27.823 98.7461 28.8094V28.8798H95.2585C93.5441 28.8798 92.0292 29.1029 90.7141 29.5492C89.3989 29.9719 88.3772 30.6412 87.6492 31.5572C86.9211 32.4496 86.5571 33.6004 86.5571 35.0095C86.5571 36.3012 86.8507 37.4168 87.4378 38.3562C88.025 39.2722 88.8352 39.9767 89.8686 40.4699C90.9254 40.9631 92.1467 41.2097 93.5323 41.2097C94.871 41.2097 95.9983 40.9631 96.9142 40.4699C97.8537 39.9767 98.5817 39.2722 99.0984 38.3562ZM98.1824 35.8198C98.5112 35.2796 98.6991 34.5281 98.7461 33.5652V32.0151H95.2233C94.2369 32.0151 93.4736 32.2617 92.9334 32.7549C92.4168 33.2246 92.1584 33.8705 92.1584 34.6925C92.1584 35.4675 92.4168 36.1016 92.9334 36.5948C93.4736 37.0645 94.2369 37.2994 95.2233 37.2994C95.8574 37.2994 96.421 37.1937 96.9142 36.9823C97.4309 36.7475 97.8537 36.36 98.1824 35.8198Z" fill="white"/>
<path d="M115.858 41.3859C114.191 41.3859 112.735 41.1158 111.49 40.5756C110.269 40.0119 109.247 39.2604 108.425 38.321C107.603 37.3816 106.992 36.3247 106.593 35.1505C106.194 33.9527 105.994 32.7197 105.994 31.4515V30.7822C105.994 29.467 106.206 28.2105 106.628 27.0127C107.051 25.7915 107.674 24.7112 108.496 23.7717C109.318 22.8323 110.339 22.0925 111.56 21.5524C112.805 21.0122 114.226 20.7421 115.823 20.7421C117.561 20.7421 119.099 21.0826 120.438 21.7637C121.777 22.4213 122.845 23.349 123.644 24.5468C124.442 25.7445 124.888 27.1184 124.982 28.6685H119.452C119.358 27.7995 119.005 27.0714 118.395 26.4843C117.808 25.8737 116.95 25.5684 115.823 25.5684C114.884 25.5684 114.097 25.8032 113.463 26.2729C112.852 26.7427 112.394 27.3885 112.089 28.2105C111.783 29.0325 111.631 30.0071 111.631 31.1344C111.631 32.1678 111.772 33.1072 112.054 33.9527C112.335 34.7747 112.782 35.4205 113.392 35.8902C114.026 36.3365 114.848 36.5596 115.858 36.5596C116.61 36.5596 117.244 36.4304 117.761 36.1721C118.301 35.8902 118.723 35.5145 119.029 35.0448C119.358 34.5516 119.557 33.9879 119.628 33.3538H125.123C125.053 34.9508 124.607 36.36 123.785 37.5812C122.963 38.779 121.871 39.7184 120.508 40.3995C119.146 41.0571 117.596 41.3859 115.858 41.3859Z" fill="white"/>
<path fill-rule="evenodd" clip-rule="evenodd" d="M131.441 40.5404C132.709 41.104 134.165 41.3859 135.809 41.3859C137.429 41.3859 138.862 41.104 140.107 40.5404C141.352 39.9767 142.385 39.19 143.207 38.1801C144.029 37.1702 144.581 36.0194 144.863 34.7277H139.684C139.449 35.3149 139.003 35.808 138.345 36.2073C137.688 36.6066 136.842 36.8062 135.809 36.8062C134.682 36.8062 133.766 36.5713 133.061 36.1016C132.357 35.6319 131.84 34.9743 131.511 34.1288C131.328 33.6442 131.196 33.1158 131.114 32.5436H145.215V30.6412C145.215 28.8798 144.839 27.2593 144.088 25.7797C143.336 24.2767 142.244 23.0672 140.811 22.1512C139.402 21.2118 137.664 20.7421 135.598 20.7421C134.024 20.7421 132.615 21.0239 131.37 21.5876C130.149 22.1278 129.127 22.8675 128.305 23.807C127.483 24.7464 126.849 25.815 126.403 27.0127C125.98 28.187 125.769 29.42 125.769 30.7117V31.4163C125.769 32.661 125.98 33.8822 126.403 35.08C126.849 36.2543 127.483 37.3229 128.305 38.2858C129.151 39.2252 130.196 39.9767 131.441 40.5404ZM131.158 29.3378C131.246 28.8327 131.375 28.3747 131.546 27.9639C131.899 27.0949 132.415 26.4373 133.096 25.9911C133.777 25.5449 134.611 25.3218 135.598 25.3218C136.561 25.3218 137.359 25.5449 137.993 25.9911C138.651 26.4139 139.144 27.0362 139.473 27.8582C139.651 28.3032 139.781 28.7964 139.862 29.3378H131.158Z" fill="white"/>
<path d="M61.6876 40.7165V20.0375H54.4658V14.9999H74.7221V20.0375H67.4651V40.7165H61.6876Z" fill="white"/>
<path fill-rule="evenodd" clip-rule="evenodd" d="M28.1434 13.2325C20.1096 13.2325 13.5968 19.7452 13.5968 27.779C13.5968 35.8129 20.1096 42.3256 28.1434 42.3256C36.1773 42.3256 42.69 35.8129 42.69 27.779C42.69 19.7452 36.1773 13.2325 28.1434 13.2325ZM10.3643 27.779C10.3643 17.9599 18.3243 9.99988 28.1434 9.99988C37.9626 9.99988 45.9226 17.9599 45.9226 27.779C45.9226 37.5982 37.9626 45.5582 28.1434 45.5582C18.3243 45.5582 10.3643 37.5982 10.3643 27.779Z" fill="white"/>
<path fill-rule="evenodd" clip-rule="evenodd" d="M37.013 21.7514C37.4868 20.2588 36.0714 18.8571 34.5835 19.3453L24.4487 22.6708C23.862 22.8633 23.4037 23.326 23.2168 23.9145L20.0765 33.8067C19.6027 35.2992 21.0181 36.701 22.5059 36.2128L32.6408 32.8873C33.2274 32.6948 33.6858 32.232 33.8726 31.6435L37.013 21.7514ZM28.5428 30.0879C29.818 30.0879 30.8518 29.0542 30.8518 27.779C30.8518 26.5038 29.818 25.47 28.5428 25.47C27.2676 25.47 26.2339 26.5038 26.2339 27.779C26.2339 29.0542 27.2676 30.0879 28.5428 30.0879Z" fill="white"/>
</svg>
