<svg width="174" height="51" viewBox="0 0 174 51" fill="none" xmlns="http://www.w3.org/2000/svg">
<path d="M13.7765 14.2478C15.864 12.2548 18.6985 11.0914 21.5714 10.9468C22.5546 10.9468 23.5408 10.9527 24.524 10.9438C24.4738 11.9979 24.524 13.0549 24.4945 14.109C24.3557 16.4652 23.4847 18.7683 22.0173 20.6166C20.1099 23.1027 17.1927 24.771 14.0953 25.2021C12.743 25.4206 11.3701 25.2818 10.0089 25.3202C10.0325 24.1598 9.95871 22.9964 10.0502 21.839C10.316 18.9691 11.6712 16.2202 13.7765 14.2478Z" fill="white"/>
<path d="M25.4346 10.9438C26.4887 10.9556 27.5427 10.9379 28.5998 10.9497C31.2306 11.1357 33.8259 12.1455 35.8072 13.8964C37.9921 15.7714 39.4891 18.4523 39.8729 21.3164C40.0412 22.6451 39.9349 23.9885 39.9999 25.3231C39.0787 25.3202 38.1604 25.3172 37.2392 25.3231C34.9745 25.2611 32.7482 24.5289 30.8526 23.2947C29.9787 22.6687 29.0811 22.0339 28.4256 21.1658C26.9877 19.5596 26.0103 17.5429 25.6413 15.417C25.3637 13.9407 25.4759 12.4349 25.4346 10.9438Z" fill="white"/>
<path d="M10.0109 26.1674C10.9469 26.2206 11.8858 26.1232 12.8189 26.2265C16.8138 26.3121 20.6906 28.5561 22.7604 31.9723C23.9473 33.8856 24.5851 36.1532 24.5024 38.4061C24.4995 39.1442 24.5113 39.8795 24.4906 40.6147C23.0084 40.5704 21.5114 40.6914 20.044 40.405C16.7842 39.8558 13.7873 37.916 11.9833 35.1464C10.6162 33.1327 9.93415 30.6732 10.005 28.2431C10.005 27.5493 10.005 26.8584 10.0109 26.1674Z" fill="white"/>
<path d="M35.0111 26.4803C36.6173 26.123 38.2737 26.1821 39.9065 26.1821L39.9774 26.2529C39.942 27.7972 40.063 29.3591 39.753 30.8856C39.1005 34.3107 36.8328 37.3696 33.7828 39.0496C31.8842 40.1067 29.7052 40.6263 27.535 40.6027C26.8411 40.6057 26.1443 40.5909 25.4505 40.6116C25.4505 39.3331 25.3973 38.0487 25.542 36.7761C25.8786 33.6965 27.5439 30.8295 29.9385 28.8926C31.4207 27.7234 33.1627 26.8759 35.0111 26.4803Z" fill="white"/>
<path d="M52.0987 34.8959C52.0987 35.4157 51.9187 35.8555 51.5589 36.2154C51.219 36.5553 50.7892 36.7252 50.2693 36.7252C49.7695 36.7252 49.3497 36.5553 49.0098 36.2154C48.6699 35.8555 48.5 35.4157 48.5 34.8959V16.3627C48.5 15.8429 48.6699 15.4131 49.0098 15.0732C49.3697 14.7134 49.8095 14.5334 50.3293 14.5334C50.8491 14.5334 51.269 14.7134 51.5889 15.0732C51.9287 15.4131 52.0987 15.8429 52.0987 16.3627V34.8959Z" fill="white"/>
<path d="M66.5428 20.6811C67.0626 20.6811 67.4925 20.8611 67.8323 21.2209C68.1722 21.5608 68.3421 21.9907 68.3421 22.5105V30.1276C68.3421 32.2469 67.7524 33.9262 66.5728 35.1658C65.3932 36.4053 63.6939 37.0251 61.4747 37.0251C59.2555 37.0251 57.5561 36.4053 56.3765 35.1658C55.217 33.9262 54.6372 32.2469 54.6372 30.1276V22.5105C54.6372 21.9907 54.8071 21.5608 55.147 21.2209C55.4869 20.8611 55.9167 20.6811 56.4365 20.6811C56.9563 20.6811 57.3862 20.8611 57.7261 21.2209C58.0659 21.5608 58.2359 21.9907 58.2359 22.5105V30.1276C58.2359 31.3472 58.5058 32.2569 59.0456 32.8566C59.5854 33.4364 60.3951 33.7263 61.4747 33.7263C62.5743 33.7263 63.394 33.4364 63.9338 32.8566C64.4736 32.2569 64.7435 31.3472 64.7435 30.1276V22.5105C64.7435 21.9907 64.9134 21.5608 65.2533 21.2209C65.5932 20.8611 66.023 20.6811 66.5428 20.6811Z" fill="white"/>
<path d="M79.1656 20.3813C80.765 20.3813 81.9445 20.7711 82.7043 21.5508C83.464 22.3105 83.9638 23.3002 84.2037 24.5197L83.6939 24.2498L83.9338 23.77C84.1737 23.3102 84.5436 22.8204 85.0434 22.3005C85.5432 21.7607 86.143 21.3109 86.8427 20.951C87.5625 20.5712 88.3622 20.3813 89.2419 20.3813C90.6813 20.3813 91.7709 20.6911 92.5106 21.3109C93.2704 21.9307 93.7902 22.7604 94.0701 23.8C94.35 24.8196 94.4899 25.9592 94.4899 27.2187V34.8959C94.4899 35.4157 94.32 35.8555 93.9801 36.2154C93.6402 36.5553 93.2104 36.7252 92.6906 36.7252C92.1708 36.7252 91.7409 36.5553 91.4011 36.2154C91.0612 35.8555 90.8912 35.4157 90.8912 34.8959V27.2187C90.8912 26.559 90.8113 25.9692 90.6513 25.4494C90.4914 24.9096 90.2015 24.4797 89.7817 24.1599C89.3618 23.84 88.762 23.68 87.9823 23.68C87.2226 23.68 86.5728 23.84 86.033 24.1599C85.4932 24.4797 85.0834 24.9096 84.8035 25.4494C84.5436 25.9692 84.4136 26.559 84.4136 27.2187V34.8959C84.4136 35.4157 84.2437 35.8555 83.9038 36.2154C83.5639 36.5553 83.1341 36.7252 82.6143 36.7252C82.0945 36.7252 81.6646 36.5553 81.3248 36.2154C80.9849 35.8555 80.815 35.4157 80.815 34.8959V27.2187C80.815 26.559 80.735 25.9692 80.575 25.4494C80.4151 24.9096 80.1252 24.4797 79.7054 24.1599C79.2855 23.84 78.6857 23.68 77.906 23.68C77.1463 23.68 76.4966 23.84 75.9568 24.1599C75.4169 24.4797 75.0071 24.9096 74.7272 25.4494C74.4673 25.9692 74.3373 26.559 74.3373 27.2187V34.8959C74.3373 35.4157 74.1674 35.8555 73.8275 36.2154C73.4877 36.5553 73.0578 36.7252 72.538 36.7252C72.0182 36.7252 71.5884 36.5553 71.2485 36.2154C70.9086 35.8555 70.7387 35.4157 70.7387 34.8959V22.5105C70.7387 21.9907 70.9086 21.5608 71.2485 21.2209C71.5884 20.8611 72.0182 20.6811 72.538 20.6811C73.0578 20.6811 73.4877 20.8611 73.8275 21.2209C74.1674 21.5608 74.3373 21.9907 74.3373 22.5105V23.8L73.8875 23.71C74.0674 23.3701 74.3174 23.0103 74.6372 22.6304C74.9571 22.2306 75.347 21.8607 75.8068 21.5208C76.2666 21.181 76.7764 20.9111 77.3362 20.7111C77.896 20.4912 78.5058 20.3813 79.1656 20.3813Z" fill="white"/>
<path d="M100.274 34.8959C100.274 35.4157 100.104 35.8555 99.7642 36.2154C99.4243 36.5553 98.9945 36.7252 98.4747 36.7252C97.9549 36.7252 97.525 36.5553 97.1852 36.2154C96.8453 35.8555 96.6754 35.4157 96.6754 34.8959V22.5105C96.6754 21.9907 96.8453 21.5608 97.1852 21.2209C97.525 20.8611 97.9549 20.6811 98.4747 20.6811C98.9945 20.6811 99.4243 20.8611 99.7642 21.2209C100.104 21.5608 100.274 21.9907 100.274 22.5105V34.8959ZM98.4447 18.7319C97.765 18.7319 97.2851 18.6219 97.0052 18.402C96.7253 18.1821 96.5854 17.7922 96.5854 17.2324V16.6626C96.5854 16.0828 96.7353 15.693 97.0352 15.4931C97.3551 15.2731 97.8349 15.1632 98.4747 15.1632C99.1744 15.1632 99.6643 15.2731 99.9442 15.4931C100.224 15.713 100.364 16.1028 100.364 16.6626V17.2324C100.364 17.8122 100.214 18.2121 99.9142 18.432C99.6143 18.6319 99.1245 18.7319 98.4447 18.7319Z" fill="white"/>
<path d="M111.05 20.3813C112.529 20.3813 113.649 20.6911 114.409 21.3109C115.188 21.9307 115.718 22.7604 115.998 23.8C116.298 24.8196 116.448 25.9592 116.448 27.2187V34.8959C116.448 35.4157 116.278 35.8555 115.938 36.2154C115.598 36.5553 115.168 36.7252 114.649 36.7252C114.129 36.7252 113.699 36.5553 113.359 36.2154C113.019 35.8555 112.849 35.4157 112.849 34.8959V27.2187C112.849 26.559 112.759 25.9692 112.579 25.4494C112.419 24.9096 112.12 24.4797 111.68 24.1599C111.24 23.84 110.61 23.68 109.79 23.68C108.991 23.68 108.311 23.84 107.751 24.1599C107.211 24.4797 106.791 24.9096 106.492 25.4494C106.212 25.9692 106.072 26.559 106.072 27.2187V34.8959C106.072 35.4157 105.902 35.8555 105.562 36.2154C105.222 36.5553 104.792 36.7252 104.272 36.7252C103.753 36.7252 103.323 36.5553 102.983 36.2154C102.643 35.8555 102.473 35.4157 102.473 34.8959V22.5105C102.473 21.9907 102.643 21.5608 102.983 21.2209C103.323 20.8611 103.753 20.6811 104.272 20.6811C104.792 20.6811 105.222 20.8611 105.562 21.2209C105.902 21.5608 106.072 21.9907 106.072 22.5105V23.8L105.622 23.71C105.802 23.3701 106.062 23.0103 106.402 22.6304C106.741 22.2306 107.141 21.8607 107.601 21.5208C108.061 21.181 108.581 20.9111 109.161 20.7111C109.74 20.4912 110.37 20.3813 111.05 20.3813Z" fill="white"/>
<path d="M134.252 28.7182C134.252 30.3576 133.883 31.807 133.143 33.0666C132.423 34.3061 131.443 35.2757 130.204 35.9755C128.984 36.6752 127.615 37.0251 126.095 37.0251C124.576 37.0251 123.197 36.6752 121.957 35.9755C120.737 35.2757 119.758 34.3061 119.018 33.0666C118.298 31.807 117.938 30.3576 117.938 28.7182C117.938 27.0788 118.298 25.6393 119.018 24.3998C119.758 23.1402 120.737 22.1606 121.957 21.4609C123.197 20.7411 124.576 20.3813 126.095 20.3813C127.615 20.3813 128.984 20.7411 130.204 21.4609C131.443 22.1606 132.423 23.1402 133.143 24.3998C133.883 25.6393 134.252 27.0788 134.252 28.7182ZM130.654 28.7182C130.654 27.6985 130.444 26.8189 130.024 26.0791C129.624 25.3194 129.074 24.7296 128.375 24.3098C127.695 23.89 126.935 23.68 126.095 23.68C125.256 23.68 124.486 23.89 123.786 24.3098C123.107 24.7296 122.557 25.3194 122.137 26.0791C121.737 26.8189 121.537 27.6985 121.537 28.7182C121.537 29.7178 121.737 30.5975 122.137 31.3572C122.557 32.0969 123.107 32.6767 123.786 33.0966C124.486 33.5164 125.256 33.7263 126.095 33.7263C126.935 33.7263 127.695 33.5164 128.375 33.0966C129.074 32.6767 129.624 32.0969 130.024 31.3572C130.444 30.5975 130.654 29.7178 130.654 28.7182Z" fill="white"/>
<path d="M147.665 20.6811C148.185 20.6811 148.615 20.8611 148.955 21.2209C149.295 21.5608 149.465 21.9907 149.465 22.5105V30.1276C149.465 32.2469 148.875 33.9262 147.695 35.1658C146.516 36.4053 144.816 37.0251 142.597 37.0251C140.378 37.0251 138.679 36.4053 137.499 35.1658C136.339 33.9262 135.76 32.2469 135.76 30.1276V22.5105C135.76 21.9907 135.93 21.5608 136.269 21.2209C136.609 20.8611 137.039 20.6811 137.559 20.6811C138.079 20.6811 138.509 20.8611 138.848 21.2209C139.188 21.5608 139.358 21.9907 139.358 22.5105V30.1276C139.358 31.3472 139.628 32.2569 140.168 32.8566C140.708 33.4364 141.518 33.7263 142.597 33.7263C143.697 33.7263 144.516 33.4364 145.056 32.8566C145.596 32.2569 145.866 31.3472 145.866 30.1276V22.5105C145.866 21.9907 146.036 21.5608 146.376 21.2209C146.716 20.8611 147.145 20.6811 147.665 20.6811Z" fill="white"/>
<path d="M150.931 34.2361C150.732 33.9562 150.642 33.5964 150.662 33.1565C150.682 32.7167 150.941 32.3368 151.441 32.017C151.761 31.817 152.101 31.7371 152.461 31.777C152.821 31.797 153.171 31.977 153.511 32.3168C154.09 32.8966 154.7 33.3465 155.34 33.6663C155.98 33.9862 156.779 34.1462 157.739 34.1462C158.039 34.1262 158.369 34.0862 158.729 34.0262C159.088 33.9462 159.398 33.7863 159.658 33.5464C159.938 33.2865 160.078 32.8966 160.078 32.3768C160.078 31.937 159.928 31.5871 159.628 31.3272C159.328 31.0673 158.929 30.8474 158.429 30.6674C157.949 30.4875 157.409 30.3176 156.809 30.1576C156.19 29.9777 155.55 29.7778 154.89 29.5579C154.25 29.3379 153.66 29.058 153.121 28.7182C152.581 28.3583 152.141 27.8885 151.801 27.3087C151.461 26.7289 151.291 25.9992 151.291 25.1195C151.291 24.1199 151.571 23.2702 152.131 22.5704C152.691 21.8707 153.411 21.3309 154.29 20.951C155.19 20.5712 156.13 20.3813 157.109 20.3813C157.729 20.3813 158.379 20.4612 159.058 20.6212C159.738 20.7611 160.388 21.001 161.008 21.3409C161.628 21.6608 162.147 22.0906 162.567 22.6304C162.787 22.9303 162.917 23.2902 162.957 23.71C162.997 24.1299 162.807 24.5097 162.387 24.8496C162.087 25.0895 161.737 25.1995 161.338 25.1795C160.938 25.1395 160.608 24.9995 160.348 24.7596C160.008 24.3198 159.548 23.9699 158.968 23.71C158.409 23.4501 157.759 23.3202 157.019 23.3202C156.719 23.3202 156.389 23.3602 156.03 23.4401C155.69 23.5001 155.39 23.65 155.13 23.89C154.87 24.1099 154.74 24.4697 154.74 24.9696C154.74 25.4294 154.89 25.7992 155.19 26.0791C155.49 26.3391 155.89 26.559 156.389 26.7389C156.909 26.8988 157.459 27.0588 158.039 27.2187C158.639 27.3787 159.248 27.5686 159.868 27.7885C160.488 28.0084 161.058 28.2983 161.578 28.6582C162.097 29.0181 162.517 29.4879 162.837 30.0677C163.157 30.6275 163.317 31.3472 163.317 32.2269C163.317 33.2465 163.017 34.1162 162.417 34.8359C161.817 35.5556 161.068 36.1054 160.168 36.4853C159.268 36.8452 158.349 37.0251 157.409 37.0251C156.23 37.0251 155.05 36.8252 153.87 36.4253C152.691 36.0055 151.711 35.2757 150.931 34.2361Z" fill="white"/>
</svg>
