<svg width="160" height="56" viewBox="0 0 160 56" fill="none" xmlns="http://www.w3.org/2000/svg">
<path d="M45.1586 22.3043C46.2159 23.3616 46.2159 25.0758 45.1586 26.1331L25.9494 45.3423C24.8921 46.3996 23.1779 46.3996 22.1206 45.3423L10.0322 33.2539C8.97494 32.1966 8.97494 30.4824 10.0322 29.4252L29.2415 10.2159C30.2987 9.15865 32.0129 9.15865 33.0702 10.2159L45.1586 22.3043Z" fill="white"/>
<path d="M49.6706 26.1332C50.7279 25.0759 50.7279 23.3617 49.6706 22.3044L40.782 13.4158L43.9818 10.216C45.039 9.15871 46.7532 9.15871 47.8105 10.216L59.8989 22.3044C60.9562 23.3617 60.9562 25.0759 59.8989 26.1332L40.6897 45.3424C39.6324 46.3996 37.9182 46.3996 36.8609 45.3424L33.6611 42.1426L49.6706 26.1332Z" fill="white"/>
<path d="M81.0969 29.1313C82.1173 29.3215 82.9561 29.8317 83.6134 30.6619C84.2706 31.4921 84.5992 32.4434 84.5992 33.5157C84.5992 34.4843 84.3571 35.3404 83.8728 36.0841C83.4058 36.8105 82.7226 37.3813 81.8233 37.7964C80.9239 38.2115 79.8602 38.419 78.6322 38.419H70.8232V20.3105H78.295C79.5229 20.3105 80.578 20.5094 81.4601 20.9072C82.3594 21.305 83.034 21.8585 83.4836 22.5676C83.9506 23.2767 84.1841 24.081 84.1841 24.9803C84.1841 26.0354 83.8987 26.9174 83.328 27.6266C82.7745 28.3357 82.0308 28.8372 81.0969 29.1313ZM74.4553 27.7822H77.7761C78.6409 27.7822 79.3068 27.592 79.7737 27.2115C80.2407 26.8137 80.4742 26.2516 80.4742 25.5251C80.4742 24.7987 80.2407 24.2366 79.7737 23.8388C79.3068 23.441 78.6409 23.2421 77.7761 23.2421H74.4553V27.7822ZM78.1134 35.4615C78.9954 35.4615 79.6786 35.2539 80.1629 34.8388C80.6645 34.4237 80.9152 33.8357 80.9152 33.0747C80.9152 32.2964 80.6558 31.691 80.1369 31.2586C79.6181 30.809 78.9176 30.5841 78.0355 30.5841H74.4553V35.4615H78.1134Z" fill="white"/>
<path d="M92.8383 38.6525C91.4546 38.6525 90.2094 38.3498 89.1024 37.7445C87.9955 37.1219 87.1221 36.2484 86.4821 35.1242C85.8595 34 85.5482 32.7028 85.5482 31.2327C85.5482 29.7626 85.8681 28.4654 86.5081 27.3412C87.1653 26.217 88.056 25.3522 89.1803 24.7468C90.3045 24.1242 91.5584 23.8129 92.9421 23.8129C94.3257 23.8129 95.5796 24.1242 96.7039 24.7468C97.8281 25.3522 98.7102 26.217 99.3501 27.3412C100.007 28.4654 100.336 29.7626 100.336 31.2327C100.336 32.7028 99.9987 34 99.3242 35.1242C98.6669 36.2484 97.7675 37.1219 96.626 37.7445C95.5018 38.3498 94.2392 38.6525 92.8383 38.6525ZM92.8383 35.4874C93.4955 35.4874 94.1095 35.3318 94.6803 35.0204C95.2683 34.6918 95.7353 34.2075 96.0812 33.5676C96.4271 32.9277 96.6001 32.1494 96.6001 31.2327C96.6001 29.8663 96.2369 28.82 95.5105 28.0935C94.8013 27.3498 93.9279 26.978 92.8902 26.978C91.8524 26.978 90.979 27.3498 90.2699 28.0935C89.5781 28.82 89.2321 29.8663 89.2321 31.2327C89.2321 32.599 89.5694 33.6541 90.2439 34.3978C90.9358 35.1242 91.8006 35.4874 92.8383 35.4874Z" fill="white"/>
<path d="M105.595 26.2775C106.062 25.5165 106.667 24.9198 107.411 24.4874C108.172 24.055 109.036 23.8388 110.005 23.8388V27.6525H109.045C107.904 27.6525 107.039 27.9206 106.451 28.4567C105.88 28.9929 105.595 29.9269 105.595 31.2586V38.419H101.962V24.0464H105.595V26.2775Z" fill="white"/>
<path d="M110.48 31.1808C110.48 29.728 110.765 28.4395 111.336 27.3152C111.924 26.191 112.719 25.3262 113.723 24.7209C114.726 24.1155 115.841 23.8129 117.069 23.8129C118.003 23.8129 118.894 24.0204 119.741 24.4355C120.589 24.8333 121.263 25.3695 121.765 26.044V19.2209H125.449V38.419H121.765V36.2917C121.315 37.0008 120.684 37.5715 119.871 38.0039C119.058 38.4363 118.116 38.6525 117.043 38.6525C115.833 38.6525 114.726 38.3412 113.723 37.7186C112.719 37.0959 111.924 36.2225 111.336 35.0983C110.765 33.9568 110.48 32.6509 110.48 31.1808ZM121.791 31.2327C121.791 30.3506 121.618 29.5983 121.272 28.9756C120.926 28.3357 120.459 27.8514 119.871 27.5228C119.283 27.1769 118.652 27.0039 117.977 27.0039C117.303 27.0039 116.68 27.1682 116.109 27.4968C115.539 27.8255 115.072 28.3097 114.708 28.9497C114.363 29.5723 114.19 30.316 114.19 31.1808C114.19 32.0456 114.363 32.8066 114.708 33.4638C115.072 34.1038 115.539 34.5967 116.109 34.9426C116.697 35.2885 117.32 35.4615 117.977 35.4615C118.652 35.4615 119.283 35.2972 119.871 34.9685C120.459 34.6226 120.926 34.1384 121.272 33.5157C121.618 32.8758 121.791 32.1148 121.791 31.2327Z" fill="white"/>
<path d="M141.32 30.9214C141.32 31.4402 141.285 31.9072 141.216 32.3223H130.709C130.795 33.3601 131.158 34.1729 131.798 34.761C132.438 35.3491 133.225 35.6431 134.159 35.6431C135.508 35.6431 136.468 35.0637 137.039 33.9049H140.956C140.541 35.2885 139.746 36.43 138.57 37.3294C137.393 38.2115 135.949 38.6525 134.237 38.6525C132.853 38.6525 131.608 38.3498 130.501 37.7445C129.411 37.1219 128.555 36.2484 127.933 35.1242C127.327 34 127.025 32.7028 127.025 31.2327C127.025 29.7453 127.327 28.4395 127.933 27.3152C128.538 26.191 129.386 25.3262 130.475 24.7209C131.565 24.1155 132.819 23.8129 134.237 23.8129C135.603 23.8129 136.823 24.1069 137.895 24.6949C138.985 25.283 139.823 26.1218 140.411 27.2115C141.017 28.2838 141.32 29.5204 141.32 30.9214ZM137.558 29.8836C137.54 28.9497 137.203 28.206 136.546 27.6525C135.889 27.0817 135.084 26.7964 134.133 26.7964C133.234 26.7964 132.473 27.0731 131.85 27.6266C131.245 28.1627 130.873 28.9151 130.735 29.8836H137.558Z" fill="white"/>
<path d="M146.565 26.2775C147.032 25.5165 147.637 24.9198 148.381 24.4874C149.142 24.055 150.007 23.8388 150.975 23.8388V27.6525H150.015C148.874 27.6525 148.009 27.9206 147.421 28.4567C146.85 28.9929 146.565 29.9269 146.565 31.2586V38.419H142.933V24.0464H146.565V26.2775Z" fill="white"/>
</svg>
