<svg width="197" height="53" viewBox="0 0 197 53" fill="none" xmlns="http://www.w3.org/2000/svg">
<path d="M67.1907 39.3537C64.6599 39.3537 62.4228 38.8566 60.4795 37.8623C58.5362 36.8455 57.0335 35.4106 55.9715 33.5577C54.9094 31.7048 54.3784 29.5242 54.3784 27.016C54.3784 24.5078 54.9094 22.3272 55.9715 20.4743C57.0335 18.5988 58.5362 17.1639 60.4795 16.1697C62.4228 15.1528 64.6599 14.6444 67.1907 14.6444C68.908 14.6444 70.422 14.8252 71.7326 15.1867C73.0658 15.5257 74.286 16.068 75.3932 16.8137V21.7284C74.399 20.9149 73.2578 20.3274 71.9698 19.9659C70.7044 19.5817 69.2583 19.3897 67.6313 19.3897C66.1173 19.3897 64.7502 19.706 63.53 20.3387C62.3324 20.9488 61.3834 21.8301 60.6829 22.9825C59.9824 24.1349 59.6321 25.4794 59.6321 27.016C59.6321 28.5752 59.9485 29.9423 60.5812 31.1173C61.2365 32.2697 62.1516 33.1623 63.3267 33.795C64.5017 34.4277 65.8575 34.744 67.394 34.744C68.795 34.744 70.0152 34.4955 71.0547 33.9983V29.4225H67.2246V25.6263H76.0372V37.0489C73.8002 38.5854 70.8513 39.3537 67.1907 39.3537Z" fill="white"/>
<path d="M77.227 22.5758H82.1756V24.9145C82.8309 24.1236 83.7461 23.5248 84.9211 23.1181C86.0961 22.6888 87.4293 22.4741 88.9207 22.4741V26.372C87.3615 26.372 85.9831 26.6093 84.7855 27.0838C83.6105 27.5583 82.797 28.2814 82.3451 29.2531V38.8453H77.227V22.5758Z" fill="white"/>
<path d="M98.7563 39.3537C95.638 39.3537 93.1862 38.608 91.4011 37.1167C89.616 35.6027 88.7234 33.4899 88.7234 30.7783C88.7234 28.0893 89.5143 25.9653 91.0961 24.4061C92.7004 22.8469 94.9827 22.0674 97.9428 22.0674C99.8861 22.0674 101.536 22.4289 102.891 23.152C104.247 23.8751 105.275 24.8806 105.976 26.1686C106.676 27.434 107.027 28.8689 107.027 30.4733V32.5409H93.6043C93.9658 34.6197 95.9091 35.6592 99.4342 35.6592C100.474 35.6592 101.547 35.5688 102.654 35.388C103.761 35.2072 104.722 34.9587 105.535 34.6423V38.2352C104.744 38.5741 103.728 38.8453 102.485 39.0487C101.242 39.252 99.9991 39.3537 98.7563 39.3537ZM102.18 29.2192C102.112 28.1345 101.705 27.2985 100.959 26.7109C100.214 26.1008 99.1856 25.7958 97.875 25.7958C96.587 25.7958 95.5702 26.1008 94.8245 26.7109C94.0788 27.3211 93.6721 28.1571 93.6043 29.2192H102.18Z" fill="white"/>
<path d="M117.518 39.3537C114.399 39.3537 111.948 38.608 110.162 37.1167C108.377 35.6027 107.485 33.4899 107.485 30.7783C107.485 28.0893 108.276 25.9653 109.857 24.4061C111.462 22.8469 113.744 22.0674 116.704 22.0674C118.647 22.0674 120.297 22.4289 121.653 23.152C123.009 23.8751 124.037 24.8806 124.737 26.1686C125.438 27.434 125.788 28.8689 125.788 30.4733V32.5409H112.366C112.727 34.6197 114.67 35.6592 118.196 35.6592C119.235 35.6592 120.308 35.5688 121.416 35.388C122.523 35.2072 123.483 34.9587 124.297 34.6423V38.2352C123.506 38.5741 122.489 38.8453 121.246 39.0487C120.003 39.252 118.76 39.3537 117.518 39.3537ZM120.941 29.2192C120.873 28.1345 120.466 27.2985 119.721 26.7109C118.975 26.1008 117.947 25.7958 116.636 25.7958C115.348 25.7958 114.332 26.1008 113.586 26.7109C112.84 27.3211 112.433 28.1571 112.366 29.2192H120.941Z" fill="white"/>
<path d="M126.924 22.5758H131.873V24.5756C132.618 23.7395 133.5 23.1181 134.516 22.7114C135.556 22.282 136.64 22.0674 137.77 22.0674C139.985 22.0674 141.634 22.6662 142.719 23.8638C143.826 25.0388 144.38 26.6319 144.38 28.643V38.8453H139.262V29.2192C139.262 27.1177 138.29 26.0669 136.347 26.0669C135.488 26.0669 134.686 26.2816 133.94 26.7109C133.195 27.1177 132.562 27.7278 132.042 28.5413V38.8453H126.924V22.5758Z" fill="white"/>
<path d="M148.896 20.0676C148.105 20.0676 147.438 19.8077 146.896 19.288C146.354 18.7683 146.082 18.113 146.082 17.3221C146.082 16.5538 146.354 15.9098 146.896 15.3901C147.438 14.8478 148.105 14.5766 148.896 14.5766C149.687 14.5766 150.353 14.8478 150.896 15.3901C151.438 15.9098 151.709 16.5538 151.709 17.3221C151.709 18.113 151.438 18.7683 150.896 19.288C150.353 19.8077 149.687 20.0676 148.896 20.0676ZM146.32 22.5758H151.472V38.8453H146.32V22.5758Z" fill="white"/>
<path d="M160.201 39.3537C158.981 39.3537 157.67 39.2181 156.269 38.947C154.891 38.6984 153.806 38.3369 153.015 37.8623V33.8628C153.919 34.4051 155.004 34.8457 156.269 35.1846C157.534 35.5236 158.709 35.6931 159.794 35.6931C160.72 35.6931 161.398 35.614 161.828 35.4558C162.257 35.2976 162.472 35.0039 162.472 34.5745C162.472 34.2356 162.347 33.9644 162.099 33.7611C161.85 33.5351 161.466 33.343 160.946 33.1849C160.449 33.0041 159.613 32.7442 158.438 32.4053C157.06 31.9985 155.975 31.5918 155.184 31.1851C154.416 30.7557 153.829 30.2247 153.422 29.592C153.038 28.9593 152.846 28.1458 152.846 27.1516C152.846 25.4568 153.512 24.1914 154.845 23.3554C156.201 22.4967 158.031 22.0674 160.336 22.0674C161.466 22.0674 162.63 22.1916 163.827 22.4402C165.048 22.6662 165.985 22.9712 166.641 23.3554V27.2533C165.985 26.8239 165.127 26.4737 164.065 26.2025C163.025 25.9314 162.008 25.7958 161.014 25.7958C160.088 25.7958 159.365 25.8862 158.845 26.0669C158.348 26.2477 158.099 26.5867 158.099 27.0838C158.099 27.5131 158.337 27.8408 158.811 28.0667C159.308 28.2927 160.223 28.5752 161.557 28.9141L162.234 29.0836C163.658 29.4677 164.765 29.8971 165.556 30.3716C166.347 30.8235 166.901 31.3771 167.217 32.0324C167.556 32.6651 167.725 33.4673 167.725 34.439C167.725 35.9303 167.081 37.128 165.793 38.0318C164.505 38.9131 162.641 39.3537 160.201 39.3537Z" fill="white"/>
<path d="M168.909 13.797H174.027V24.44C174.795 23.6491 175.665 23.0616 176.637 22.6775C177.608 22.2707 178.648 22.0674 179.755 22.0674C181.969 22.0674 183.619 22.6662 184.704 23.8638C185.811 25.0388 186.364 26.6319 186.364 28.643V38.8453H181.246V29.2192C181.246 27.1177 180.275 26.0669 178.331 26.0669C177.473 26.0669 176.67 26.2816 175.925 26.7109C175.179 27.1177 174.546 27.7278 174.027 28.5413V38.8453H168.909V13.797Z" fill="white"/>
<path fill-rule="evenodd" clip-rule="evenodd" d="M36.8992 18.5928C36.8992 22.8983 33.4089 26.3886 29.1034 26.3886C24.7979 26.3886 21.3076 22.8983 21.3076 18.5928C21.3076 14.2873 24.7979 10.797 29.1034 10.797C33.4089 10.797 36.8992 14.2873 36.8992 18.5928ZM10.9697 25.822C19.4631 25.2495 26.8653 31.6085 27.5548 40.1198C27.6262 41.0018 27.6228 41.8725 27.5499 42.7258C19.0565 43.2983 11.6543 36.9394 10.9648 28.4281C10.8934 27.5461 10.8968 26.6754 10.9697 25.822ZM33.0452 42.4279C41.5565 41.7384 47.9154 34.3362 47.3429 25.8429C46.4896 25.7699 45.6188 25.7665 44.7369 25.838C36.2256 26.5274 29.8666 33.9296 30.4391 42.4229C31.2924 42.4959 32.1632 42.4993 33.0452 42.4279Z" fill="white"/>
</svg>
