<svg width="163" height="35" viewBox="0 0 163 35" fill="none" xmlns="http://www.w3.org/2000/svg">
<path d="M6.34129 0.926636H0.56175C0.251505 0.926636 0 1.17814 0 1.48839V12.379L6.34129 0.926636Z" fill="white"/>
<path d="M0 15.8819C0.0182796 15.8827 0.0367062 15.8832 0.055274 15.8832H8.86678C9.55647 15.8832 10.0984 16.4724 10.0396 17.1584L9.27714 26.0507C9.16879 27.3143 10.8655 27.8293 11.4801 26.7194L20.6362 10.1836C21.0698 9.40042 20.5024 8.44012 19.606 8.44012H10.7945C10.1048 8.44012 9.56285 7.85087 9.62166 7.1649L10.1565 0.926636H19.0484C27.2422 0.926636 30.9151 11.2328 24.5781 16.4428L19.6242 20.5158C19.2997 20.7825 19.2358 21.2554 19.4778 21.5992L28.0264 33.7466C28.2883 34.1188 28.0221 34.6316 27.567 34.6316H0.56175C0.251504 34.6316 0 34.3801 0 34.0699V15.8819Z" fill="white"/>
<path d="M96.2232 19.4123V27.929H100.927V18.3669C100.927 17.2396 100.682 16.2557 100.189 15.4153C99.7182 14.5543 99.0418 13.888 98.1602 13.4168C97.2787 12.9247 96.2539 12.6787 95.0854 12.6787C93.9378 12.6787 92.9229 12.9247 92.0419 13.4168C91.8076 13.5419 91.5877 13.6818 91.3808 13.8359C91.2689 13.919 91.1614 14.0065 91.0577 14.0981V6.22211H86.3536V27.929H91.0577V19.4123C91.0577 18.8999 91.1707 18.4489 91.3962 18.0594C91.6217 17.6494 91.9289 17.3419 92.3184 17.137C92.7079 16.9115 93.1588 16.7988 93.6712 16.7988C94.409 16.7988 95.0141 17.0448 95.4854 17.5366C95.9774 18.0082 96.2232 18.6333 96.2232 19.4123Z" fill="white"/>
<path fill-rule="evenodd" clip-rule="evenodd" d="M43.9569 18.9819V27.929H39.1299V6.22211H47.9846C49.4197 6.22211 50.6803 6.49887 51.7665 7.05211C52.8527 7.58506 53.7036 8.33333 54.3185 9.29665C54.9335 10.26 55.2407 11.367 55.2407 12.6172C55.2407 13.888 54.9335 15.0052 54.3185 15.9685C53.7036 16.9115 52.8428 17.6494 51.7358 18.1823C51.1181 18.4797 50.4406 18.6942 49.7016 18.8255L56.6555 27.929H50.9365L44.4621 18.9819H43.9569ZM43.9569 15.4153H47.4009C48.3642 15.4153 49.102 15.1692 49.6144 14.6772C50.1471 14.1854 50.4137 13.5191 50.4137 12.6787C50.4137 11.8999 50.1575 11.2543 49.6451 10.7419C49.1328 10.2292 48.3949 9.97305 47.4316 9.97305H43.9569V15.4153Z" fill="white"/>
<path fill-rule="evenodd" clip-rule="evenodd" d="M59.7599 27.2833C61.031 27.9392 62.476 28.2672 64.0948 28.2672C65.3456 28.2672 66.4932 28.0519 67.5388 27.6215C68.5839 27.1909 69.4759 26.5452 70.2137 25.6845L67.631 23.1018C67.1801 23.6141 66.6573 24.0036 66.0626 24.2702C65.4685 24.516 64.8025 24.6392 64.0641 24.6392C63.2648 24.6392 62.5681 24.4751 61.9735 24.1471C61.3996 23.7987 60.9487 23.3171 60.6207 22.7021C60.5175 22.4887 60.4319 22.2616 60.3634 22.0205L71.0745 21.995C71.1568 21.6055 71.2078 21.2673 71.2281 20.9804C71.2423 20.8731 71.2539 20.7686 71.2632 20.6663C71.2681 20.6156 71.272 20.5657 71.2753 20.5163C71.2802 20.4419 71.284 20.369 71.2862 20.2974L71.2884 20.2184L71.2895 20.1194C71.2895 18.664 70.962 17.3726 70.3059 16.2453C69.6706 15.1179 68.7891 14.2366 67.6617 13.6011C66.5344 12.9658 65.2326 12.6479 63.7569 12.6479C62.2401 12.6479 60.8768 12.9861 59.6678 13.6625C58.4581 14.339 57.4948 15.2718 56.7773 16.4606C56.0806 17.6288 55.7322 18.9613 55.7322 20.4576C55.7322 21.9538 56.091 23.2965 56.808 24.4853C57.5255 25.6741 58.5097 26.6069 59.7599 27.2833ZM60.365 18.7913C60.3881 18.7112 60.4127 18.6327 60.4391 18.5559C60.4841 18.4265 60.534 18.3016 60.5899 18.1823C60.8977 17.5674 61.3179 17.0959 61.8506 16.7681C62.4041 16.4195 63.0498 16.2453 63.7876 16.2453C64.4843 16.2453 65.0686 16.3992 65.5404 16.7066L65.6034 16.7445L65.6665 16.7848C65.7197 16.8202 65.7713 16.8575 65.8212 16.8965C65.8701 16.9346 65.9178 16.9746 65.9639 17.0163C66.2497 17.2752 66.4773 17.6025 66.6468 17.998C66.75 18.2295 66.8334 18.4876 66.897 18.7726L60.365 18.7913Z" fill="white"/>
<path d="M79.5561 28.2672C78.0184 28.2672 76.6245 27.929 75.3743 27.2526C74.124 26.5762 73.1404 25.6433 72.4229 24.4546C71.7053 23.2658 71.3466 21.9333 71.3466 20.4576C71.3466 18.9613 71.7053 17.6288 72.4229 16.4606C73.1607 15.2718 74.1548 14.339 75.405 13.6625C76.6558 12.9861 78.0596 12.6479 79.6176 12.6479C80.7855 12.6479 81.8514 12.8531 82.8153 13.2629C83.3062 13.4574 83.7692 13.7029 84.2043 13.9994C84.6404 14.297 85.0485 14.6459 85.4282 15.0464L82.4153 18.0594C82.067 17.67 81.6567 17.383 81.1854 17.1984C80.9726 17.1115 80.7444 17.0451 80.4997 16.999C80.3878 16.9779 80.2731 16.9612 80.1552 16.9488C80.0334 16.9359 79.9078 16.9277 79.7788 16.9242C79.7256 16.9225 79.6719 16.9217 79.6176 16.9217C79.4513 16.9217 79.2895 16.931 79.1321 16.9494L79.0476 16.9604L78.9949 16.968C78.9401 16.9765 78.8858 16.9864 78.832 16.9971C78.4633 17.0712 78.1205 17.1998 77.8034 17.383C77.291 17.67 76.8812 18.0797 76.5735 18.6127C76.2866 19.1253 76.1428 19.7299 76.1428 20.4269C76.1428 21.1238 76.2866 21.7388 76.5735 22.2715C76.8812 22.8044 77.3014 23.2246 77.8341 23.5321C78.3668 23.8396 78.9615 23.9935 79.6176 23.9935C80.2325 23.9935 80.7756 23.8909 81.2469 23.686C81.7389 23.4605 82.1592 23.1531 82.5075 22.7636L85.4902 25.7767C84.7112 26.5965 83.8296 27.2216 82.846 27.6523C81.8618 28.0621 80.7652 28.2672 79.5561 28.2672Z" fill="white"/>
<path fill-rule="evenodd" clip-rule="evenodd" d="M108.96 28.2365C107.587 28.2365 106.357 27.8983 105.271 27.2216C104.205 26.5452 103.354 25.623 102.719 24.4546C102.104 23.2864 101.796 21.9538 101.796 20.4576C101.796 18.9613 102.104 17.6288 102.719 16.4606C103.354 15.2921 104.205 14.3699 105.271 13.6933C106.357 13.0169 107.587 12.6787 108.96 12.6787C109.965 12.6787 110.867 12.8734 111.666 13.2629C112.203 13.5183 112.675 13.8397 113.08 14.227V12.9861H117.692V27.929H113.08V26.7183C112.803 26.9802 112.492 27.2123 112.147 27.4145C112.084 27.4515 112.019 27.4877 111.954 27.5228C111.87 27.5675 111.784 27.6106 111.697 27.6523C110.877 28.0418 109.965 28.2365 108.96 28.2365ZM109.914 23.9935C110.918 23.9935 111.727 23.6654 112.342 23.0096C112.957 22.3332 113.265 21.4823 113.265 20.4576C113.265 20.109 113.229 19.7809 113.157 19.4734C113.085 19.1659 112.977 18.879 112.834 18.6127C112.568 18.0797 112.178 17.67 111.666 17.383C111.389 17.21 111.087 17.0857 110.758 17.01C110.502 16.951 110.231 16.9217 109.944 16.9217C109.617 16.9217 109.307 16.9601 109.015 17.0369C108.837 17.0838 108.665 17.145 108.501 17.2204C108.395 17.2687 108.292 17.323 108.192 17.383C107.7 17.67 107.3 18.0797 106.992 18.6127C106.706 19.1456 106.562 19.7606 106.562 20.4576C106.562 21.134 106.706 21.7388 106.992 22.2715C107.279 22.8044 107.679 23.2246 108.192 23.5321C108.704 23.8396 109.278 23.9935 109.914 23.9935Z" fill="white"/>
<path d="M124.479 12.9861H119.774V27.929H124.479V19.7197C124.479 18.7562 124.704 18.0389 125.155 17.5674C125.627 17.0756 126.252 16.8295 127.031 16.8295C127.42 16.8295 127.768 16.891 128.076 17.0141C128.383 17.137 128.64 17.3112 128.845 17.5366L131.643 14.0008C131.233 13.5498 130.751 13.222 130.198 13.0169C129.665 12.7914 129.039 12.6787 128.322 12.6787C126.682 12.6787 125.401 13.1606 124.479 14.1239V12.9861Z" fill="white"/>
<path fill-rule="evenodd" clip-rule="evenodd" d="M137.579 34.6316C135.94 34.6316 134.495 34.3447 133.244 33.7706C132.014 33.2174 131.041 32.4282 130.323 31.4032L133.213 28.513C133.746 29.1485 134.341 29.6302 134.997 29.9582C135.673 30.286 136.483 30.45 137.426 30.45C138.594 30.45 139.506 30.1631 140.162 29.5893C140.838 29.0152 141.177 28.2055 141.177 27.1602V26.2163C140.857 26.4725 140.498 26.6947 140.101 26.8834C139.28 27.2729 138.369 27.4677 137.364 27.4677C135.991 27.4677 134.771 27.1399 133.705 26.4838C132.639 25.8279 131.799 24.9362 131.184 23.8089C130.569 22.6815 130.262 21.4313 130.262 20.0579C130.262 18.664 130.569 17.4138 131.184 16.3067C131.799 15.1794 132.639 14.2981 133.705 13.6625C134.771 13.0067 135.991 12.6787 137.364 12.6787C138.389 12.6787 139.301 12.8734 140.101 13.2629C140.174 13.2958 140.246 13.3301 140.317 13.3658C140.666 13.5419 140.983 13.75 141.269 13.9903V12.9861H145.881V27.0373C145.881 28.5747 145.522 29.9069 144.805 31.0343C144.087 32.1616 143.104 33.0429 141.853 33.6785C140.603 34.314 139.178 34.6316 137.579 34.6316ZM138.256 23.2864C138.912 23.2864 139.475 23.1426 139.947 22.8557C140.068 22.7852 140.181 22.709 140.287 22.6272C140.612 22.3768 140.868 22.0737 141.053 21.7182C141.133 21.5718 141.2 21.4201 141.256 21.2629C141.328 21.0591 141.381 20.846 141.413 20.6238C141.44 20.4414 141.453 20.2527 141.453 20.0579C141.453 19.443 141.32 18.8895 141.053 18.3977C140.808 17.9056 140.439 17.5161 139.947 17.2292C139.475 16.9423 138.912 16.7988 138.256 16.7988C138.062 16.7988 137.876 16.8122 137.695 16.8389L137.601 16.8542L137.518 16.8696C137.339 16.9055 137.167 16.9552 137.003 17.0185C136.911 17.0539 136.821 17.0937 136.733 17.1376C136.676 17.1664 136.62 17.1968 136.565 17.2292C136.073 17.5161 135.694 17.9056 135.427 18.3977C135.288 18.6538 135.185 18.9268 135.119 19.2164C135.058 19.4828 135.027 19.7634 135.027 20.0579C135.027 20.6318 135.161 21.1749 135.427 21.6875C135.694 22.1793 136.062 22.5688 136.534 22.8557C136.798 23.0099 137.086 23.1229 137.398 23.1942C137.667 23.2556 137.952 23.2864 138.256 23.2864Z" fill="white"/>
<path fill-rule="evenodd" clip-rule="evenodd" d="M151.015 27.2833C152.286 27.9392 153.731 28.2672 155.35 28.2672C156.6 28.2672 157.749 28.0519 158.794 27.6215C159.839 27.1909 160.731 26.5452 161.468 25.6845L158.886 23.1018C158.435 23.6141 157.913 24.0036 157.318 24.2702C156.724 24.516 156.057 24.6392 155.319 24.6392C154.52 24.6392 153.823 24.4751 153.229 24.1471C152.819 23.8986 152.472 23.582 152.188 23.1975C152.143 23.1363 152.099 23.0732 152.057 23.0085C151.993 22.9106 151.932 22.8083 151.876 22.7021C151.773 22.4887 151.687 22.2616 151.618 22.0205L162.33 21.995C162.37 21.8027 162.403 21.6228 162.428 21.4555C162.455 21.2838 162.473 21.1255 162.483 20.9804C162.498 20.872 162.51 20.7662 162.519 20.663C162.536 20.4732 162.545 20.2919 162.545 20.1194C162.545 18.664 162.217 17.3726 161.561 16.2453C160.925 15.1179 160.044 14.2366 158.917 13.6011C157.789 12.9658 156.488 12.6479 155.012 12.6479C153.495 12.6479 152.132 12.9861 150.922 13.6625C149.713 14.339 148.75 15.2718 148.033 16.4606C147.336 17.6288 146.987 18.9613 146.987 20.4576C146.987 21.9538 147.346 23.2965 148.063 24.4853C148.781 25.6741 149.764 26.6069 151.015 27.2833ZM151.62 18.7913C151.682 18.5757 151.756 18.3724 151.845 18.1823C152.021 17.8312 152.233 17.527 152.482 17.2698C152.569 17.1795 152.661 17.095 152.758 17.0163C152.868 16.9261 152.984 16.8432 153.106 16.7681C153.659 16.4195 154.305 16.2453 155.043 16.2453C155.74 16.2453 156.324 16.3992 156.795 16.7066C156.983 16.8164 157.153 16.9469 157.305 17.0986C157.551 17.3435 157.75 17.6433 157.902 17.998C158.005 18.2295 158.088 18.4876 158.152 18.7726L151.62 18.7913Z" fill="white"/>
</svg>
