<svg width="167" height="51" viewBox="0 0 167 51" fill="none" xmlns="http://www.w3.org/2000/svg">
<path d="M74.99 38.8251C72.7575 38.8251 70.8407 38.4305 69.2396 37.6412C67.6385 36.852 66.3306 35.8259 65.3158 34.5631C64.3235 33.3002 63.5906 31.9246 63.1171 30.4363C62.6435 28.948 62.4067 27.516 62.4067 26.1404V25.3962C62.4067 23.8628 62.6435 22.3519 63.1171 20.8636C63.6132 19.3752 64.3686 18.0222 65.3834 16.8044C66.3982 15.5867 67.6836 14.617 69.2396 13.8954C70.8181 13.1512 72.6786 12.7791 74.8209 12.7791C77.0534 12.7791 78.9928 13.1851 80.639 13.9969C82.3077 14.7862 83.6382 15.9137 84.6304 17.3795C85.6226 18.8227 86.2202 20.514 86.4232 22.4534H81.5861C81.4057 21.3258 80.9998 20.3787 80.3683 19.612C79.7595 18.8227 78.9815 18.2364 78.0343 17.853C77.0872 17.4471 76.0161 17.2442 74.8209 17.2442C73.6031 17.2442 72.5207 17.4584 71.5736 17.8869C70.6265 18.2928 69.8372 18.8791 69.2058 19.6458C68.5743 20.4125 68.0895 21.3146 67.7512 22.3519C67.4355 23.3892 67.2777 24.5393 67.2777 25.8021C67.2777 27.0199 67.4355 28.1474 67.7512 29.1847C68.0895 30.2221 68.5856 31.1354 69.2396 31.9246C69.8936 32.6914 70.6941 33.289 71.6412 33.7174C72.6109 34.1459 73.7272 34.3601 74.99 34.3601C76.8392 34.3601 78.3952 33.9091 79.658 33.0071C80.9434 32.0825 81.7214 30.7971 81.992 29.1509H86.8291C86.6036 30.9099 86.006 32.5222 85.0363 33.988C84.0667 35.4538 82.7362 36.6264 81.0449 37.5059C79.3536 38.3854 77.3353 38.8251 74.99 38.8251Z" fill="white"/>
<path d="M89.0558 38.1824V13.4895H93.7576V38.1824H89.0558ZM86.7556 17.0074V13.4895H93.7576V17.0074H86.7556Z" fill="white"/>
<path d="M106.263 38.8251C104.639 38.8251 103.207 38.5658 101.967 38.0471C100.726 37.5285 99.6779 36.8294 98.821 35.9499C97.964 35.0479 97.3101 34.0331 96.859 32.9056C96.4306 31.7781 96.2164 30.6054 96.2164 29.3877V28.6773C96.2164 27.4145 96.4419 26.2193 96.8929 25.0918C97.3664 23.9417 98.0317 22.9269 98.8886 22.0475C99.7681 21.1454 100.828 20.4464 102.068 19.9502C103.309 19.4316 104.707 19.1723 106.263 19.1723C107.819 19.1723 109.217 19.4316 110.457 19.9502C111.697 20.4464 112.746 21.1454 113.603 22.0475C114.482 22.9269 115.148 23.9417 115.599 25.0918C116.05 26.2193 116.275 27.4145 116.275 28.6773V29.3877C116.275 30.6054 116.05 31.7781 115.599 32.9056C115.17 34.0331 114.527 35.0479 113.671 35.9499C112.814 36.8294 111.765 37.5285 110.525 38.0471C109.284 38.5658 107.864 38.8251 106.263 38.8251ZM106.263 34.7998C107.413 34.7998 108.382 34.5518 109.172 34.0557C109.961 33.537 110.559 32.8492 110.964 31.9923C111.37 31.1128 111.573 30.1206 111.573 29.0156C111.573 27.8881 111.359 26.8958 110.931 26.0389C110.525 25.1594 109.916 24.4717 109.104 23.9755C108.315 23.4569 107.368 23.1975 106.263 23.1975C105.158 23.1975 104.199 23.4569 103.387 23.9755C102.598 24.4717 101.989 25.1594 101.561 26.0389C101.132 26.8958 100.918 27.8881 100.918 29.0156C100.918 30.1206 101.121 31.1128 101.527 31.9923C101.955 32.8492 102.564 33.537 103.354 34.0557C104.143 34.5518 105.113 34.7998 106.263 34.7998Z" fill="white"/>
<path d="M124.959 38.7575C122.839 38.7575 121.193 38.0584 120.02 36.6603C118.87 35.2621 118.295 33.1875 118.295 30.4363V19.7811H122.997V30.8422C122.997 31.9697 123.312 32.8718 123.944 33.5483C124.575 34.2023 125.432 34.5292 126.515 34.5292C127.597 34.5292 128.477 34.1797 129.153 33.4806C129.852 32.7816 130.202 31.8344 130.202 30.6393V19.7811H134.904V38.1824H131.183V30.3686H131.555C131.555 32.2178 131.318 33.7625 130.844 35.0028C130.371 36.2431 129.66 37.1789 128.713 37.8104C127.766 38.4418 126.582 38.7575 125.162 38.7575H124.959Z" fill="white"/>
<path d="M146.224 38.7913C144.939 38.7913 143.755 38.5545 142.672 38.081C141.59 37.6074 140.654 36.9422 139.865 36.0852C139.076 35.2283 138.467 34.2361 138.038 33.1085C137.61 31.9585 137.396 30.7182 137.396 29.3877V28.6773C137.396 27.3694 137.598 26.1404 138.004 24.9903C138.433 23.8402 139.019 22.8367 139.763 21.9798C140.53 21.1229 141.443 20.4576 142.503 19.9841C143.586 19.488 144.781 19.2399 146.089 19.2399C147.532 19.2399 148.795 19.5556 149.877 20.187C150.982 20.7959 151.862 21.7205 152.516 22.9608C153.17 24.201 153.531 25.757 153.598 27.6287L152.211 26.0051V13.4895H156.913V38.1824H153.192V30.3686H154.004C153.936 32.2403 153.553 33.8076 152.854 35.0705C152.155 36.3107 151.23 37.2466 150.08 37.878C148.953 38.4869 147.667 38.7913 146.224 38.7913ZM147.273 34.8337C148.197 34.8337 149.043 34.6307 149.81 34.2248C150.576 33.7963 151.185 33.1875 151.636 32.3982C152.11 31.5864 152.347 30.6393 152.347 29.5568V28.2038C152.347 27.1214 152.11 26.2193 151.636 25.4977C151.163 24.7535 150.543 24.1898 149.776 23.8064C149.009 23.4005 148.175 23.1975 147.273 23.1975C146.258 23.1975 145.356 23.4456 144.567 23.9417C143.8 24.4153 143.191 25.0918 142.74 25.9713C142.312 26.8507 142.097 27.8768 142.097 29.0494C142.097 30.2221 142.323 31.2481 142.774 32.1276C143.225 32.9845 143.834 33.6498 144.6 34.1233C145.39 34.5969 146.281 34.8337 147.273 34.8337Z" fill="white"/>
<path d="M44.6924 40.7791C43.0679 40.7791 42.0669 40.0291 40.4316 39.1458C38.7964 38.2625 34.0669 34.7061 34.0669 30.2791C34.0669 27.2759 33.2927 24.8469 31.9744 22.9112C30.6658 20.9903 28.8931 19.6594 27.0488 18.72C26.1602 18.2674 25.2354 17.8972 24.3145 17.5913C23.7776 17.4131 23.4661 16.8367 23.699 16.3213C25.1753 13.053 28.4631 10.7791 32.2825 10.7791C37.4814 10.7791 41.6963 14.9937 41.6963 20.1929C41.6963 21.3052 41.5034 22.3726 41.1492 23.3631C42.6497 22.3518 44.4575 21.7617 46.4031 21.7617C51.6021 21.7617 55.8169 25.9763 55.8169 31.1755C55.8169 37.4345 50.3169 40.7791 44.6924 40.7791Z" fill="white"/>
<path d="M10.3169 30.3911C10.3169 35.3533 13.5884 39.4878 17.9224 40.4014C18.5913 40.6458 19.3135 40.7791 20.0669 40.7791H34.6931C35.1836 40.7791 35.3972 40.123 35.0227 39.8062C32.4666 37.6433 30.5669 34.5952 30.5669 30.2791C30.5669 27.9075 29.9663 26.1802 29.0815 24.8816C28.1868 23.5681 26.9282 22.5864 25.4602 21.8384C23.9785 21.0838 22.3699 20.603 20.8337 20.2622C20.4719 20.2166 20.1038 20.1929 19.7307 20.1929C14.5315 20.1929 10.3169 24.7588 10.3169 30.3911Z" fill="white"/>
</svg>
